<svg width="12" height="12" viewBox="0 0 12 12" fill="none" xmlns="http://www.w3.org/2000/svg">
<path fill-rule="evenodd" clip-rule="evenodd" d="M9.53556 1.05022C9.92608 0.659693 10.5592 0.659693 10.9498 1.05022C11.3403 1.44074 11.3403 2.07391 10.9498 2.46443L7.41424 5.99996L10.9498 9.5355C11.3403 9.92602 11.3403 10.5592 10.9498 10.9497C10.5592 11.3402 9.92608 11.3402 9.53556 10.9497L6.00003 7.41418L2.46449 10.9497C2.07397 11.3402 1.4408 11.3402 1.05028 10.9497C0.659754 10.5592 0.659754 9.92602 1.05028 9.5355L4.58581 5.99996L1.05028 2.46443C0.659754 2.07391 0.659754 1.44074 1.05028 1.05022C1.4408 0.659693 2.07397 0.659693 2.46449 1.05022L6.00003 4.58575L9.53556 1.05022Z" fill="#EB4B51"/>
</svg>
