<svg width="13" height="13" viewBox="0 0 13 13" fill="none" xmlns="http://www.w3.org/2000/svg">
<path fill-rule="evenodd" clip-rule="evenodd" d="M7.68294 5.5634C7.88707 5.08313 8 4.55475 8 4C8 1.79086 6.20914 0 4 0C1.79086 0 0 1.79086 0 4C0 6.20914 1.79086 8 4 8C4.55379 8 5.0813 7.88746 5.5609 7.684L6.68825 8.81135C6.74736 8.87046 6.83209 8.89611 6.91406 8.87972L8.18262 8.62601C8.35763 8.59101 8.51189 8.74538 8.47676 8.92036L8.26977 9.95139C8.23466 10.1263 8.38877 10.2806 8.56373 10.2458L9.59747 10.0398C9.77232 10.005 9.92639 10.1591 9.89148 10.334L9.6379 11.6036C9.62153 11.6856 9.64719 11.7703 9.70628 11.8294L9.8474 11.9705C9.9239 12.047 10.0231 12.0966 10.1302 12.1119L11.1202 12.2533C11.7802 12.3476 12.3458 11.7819 12.2516 11.122L12.1101 10.132C12.0948 10.0249 12.0452 9.92568 11.9687 9.84918L7.68294 5.5634ZM3.5 5C4.32843 5 5 4.32843 5 3.5C5 2.67157 4.32843 2 3.5 2C2.67157 2 2 2.67157 2 3.5C2 4.32843 2.67157 5 3.5 5Z" fill="#383736"/>
</svg>
