<svg width="88" height="161" viewBox="0 0 88 161" fill="none" xmlns="http://www.w3.org/2000/svg">
<path fill-rule="evenodd" clip-rule="evenodd" d="M55.7776 0.165527V0.596506H54.0322L54.032 2.43778L55.648 3.182L56.6502 3.18238V3.61336L56.5821 3.6125L71.8217 10.6321L71.2685 11.8039L53.4851 3.6125L47.9236 3.61336L47.923 15.9406L54.0797 27.875L52.9134 28.462L47.923 18.7879L47.9236 20.0768H47.4873V18.3528L47.699 18.3524L46.765 16.5423H44.869L44.8693 17.4047H44.433V3.61336H4.29068V32.058H17.3806V38.0917H31.3431V30.334H44.433V28.6101H47.9236L47.923 38.0911L59.2682 38.0917V38.5226H57.5229V41.1085H59.2682V41.5395H4.29068V129.459L16.675 129.459L16.6488 129.392L30.4986 124.14L30.9677 125.347L20.122 129.459L21.7439 129.459V129.89H19.9985L19.998 129.507L19.125 129.837L19.1259 129.89L18.986 129.89L18.253 130.168V132.475L19.1259 132.476V132.907H3.41803V158.766H84.5753V132.907H63.6315V131.786H62.9334L62.933 131.441H42.5131L42.5131 131.786H41.815V132.907H32.2158L32.215 132.905L30.4732 132.906V132.475L32.215 132.475L32.2158 129.89H30.4705V129.459H41.815V130.58H42.5131L42.5131 131.01H62.933L62.9334 130.58H63.6315V129.459H83.7027V41.5395H70.6128L70.612 41.3391L59.8827 46.9745L59.2682 45.8329L67.994 41.2491L67.9948 41.1085L68.264 41.1076L70.612 39.8745L70.6128 38.0917H83.7027V14.8188H74.9761V3.61336H70.6128V3.18238H72.3581V0.165527H78.4667V11.371H87.1933V132.907H86.3206V160.49H1.67271V132.907H0.800049L0.800049 0.165527H55.7776ZM51.0427 144.176C51.1563 144.176 51.262 144.182 51.3597 144.193C51.4574 144.204 51.5438 144.222 51.6188 144.247V144.89H51.5881C51.5268 144.857 51.4381 144.826 51.3222 144.798C51.2063 144.77 51.0825 144.756 50.9507 144.756C50.528 144.756 50.1865 144.896 49.9263 145.178C49.6661 145.46 49.5121 145.878 49.4644 146.432C49.6258 146.32 49.7917 146.234 49.9621 146.173C50.1325 146.112 50.3189 146.082 50.5212 146.082C50.7189 146.082 50.8921 146.102 51.041 146.141C51.1899 146.18 51.345 146.26 51.5063 146.378C51.6927 146.518 51.8313 146.694 51.9222 146.907C52.0131 147.12 52.0585 147.371 52.0585 147.658C52.0585 147.916 52.0154 148.154 51.929 148.372C51.8426 148.589 51.7267 148.771 51.5813 148.917C51.429 149.072 51.2586 149.189 51.07 149.269C50.8814 149.349 50.6734 149.389 50.4462 149.389C50.2166 149.389 50.0081 149.35 49.8206 149.274C49.6332 149.198 49.4678 149.084 49.3247 148.934C49.1497 148.752 49.0128 148.509 48.9139 148.205C48.815 147.901 48.7656 147.527 48.7656 147.082C48.7656 146.647 48.8111 146.253 48.902 145.902C48.9929 145.551 49.1326 145.245 49.3213 144.985C49.5053 144.731 49.7428 144.533 50.0337 144.39C50.3246 144.248 50.6609 144.176 51.0427 144.176ZM47.2316 144.176C47.3453 144.176 47.4509 144.182 47.5487 144.193C47.6464 144.204 47.7327 144.222 47.8077 144.247V144.89H47.7771C47.7157 144.857 47.6271 144.826 47.5112 144.798C47.3953 144.77 47.2714 144.756 47.1396 144.756C46.7169 144.756 46.3755 144.896 46.1152 145.178C45.855 145.46 45.7011 145.878 45.6534 146.432C45.8147 146.32 45.9806 146.234 46.151 146.173C46.3215 146.112 46.5078 146.082 46.7101 146.082C46.9078 146.082 47.0811 146.102 47.2299 146.141C47.3788 146.18 47.5339 146.26 47.6952 146.378C47.8816 146.518 48.0202 146.694 48.1111 146.907C48.202 147.12 48.2475 147.371 48.2475 147.658C48.2475 147.916 48.2043 148.154 48.1179 148.372C48.0316 148.589 47.9157 148.771 47.7702 148.917C47.618 149.072 47.4475 149.189 47.2589 149.269C47.0703 149.349 46.8624 149.389 46.6351 149.389C46.4056 149.389 46.1971 149.35 46.0096 149.274C45.8221 149.198 45.6568 149.084 45.5136 148.934C45.3386 148.752 45.2017 148.509 45.1028 148.205C45.004 147.901 44.9545 147.527 44.9545 147.082C44.9545 146.647 45 146.253 45.0909 145.902C45.1818 145.551 45.3216 145.245 45.5102 144.985C45.6943 144.731 45.9317 144.533 46.2226 144.39C46.5135 144.248 46.8498 144.176 47.2316 144.176ZM41.7741 144.271V147.022H42.3775V147.56H41.7741V149.284H41.1196V147.56H38.8766V146.853L41.1469 144.271H41.7741ZM44.0137 148.325V149.284H43.199V148.325H44.0137ZM46.5601 146.634C46.401 146.634 46.2465 146.658 46.0965 146.705C45.9465 146.752 45.7988 146.821 45.6534 146.91C45.6488 146.96 45.6454 147.008 45.6431 147.054C45.6409 147.1 45.6397 147.157 45.6397 147.227C45.6397 147.575 45.6744 147.855 45.7437 148.069C45.813 148.282 45.8988 148.444 46.0011 148.554C46.0988 148.659 46.1993 148.733 46.3027 148.776C46.4061 148.818 46.5181 148.84 46.6385 148.84C46.9112 148.84 47.1322 148.743 47.3015 148.55C47.4708 148.357 47.5555 148.069 47.5555 147.685C47.5555 147.478 47.5282 147.306 47.4737 147.166C47.4191 147.027 47.3305 146.908 47.2078 146.809C47.1191 146.738 47.0186 146.69 46.9061 146.668C46.7936 146.646 46.6783 146.634 46.5601 146.634ZM50.3712 146.634C50.2121 146.634 50.0576 146.658 49.9076 146.705C49.7576 146.752 49.6099 146.821 49.4644 146.91C49.4599 146.96 49.4565 147.008 49.4542 147.054C49.4519 147.1 49.4508 147.157 49.4508 147.227C49.4508 147.575 49.4854 147.855 49.5548 148.069C49.6241 148.282 49.7099 148.444 49.8121 148.554C49.9098 148.659 50.0104 148.733 50.1138 148.776C50.2172 148.818 50.3291 148.84 50.4496 148.84C50.7223 148.84 50.9433 148.743 51.1126 148.55C51.2819 148.357 51.3665 148.069 51.3665 147.685C51.3665 147.478 51.3393 147.306 51.2847 147.166C51.2302 147.027 51.1416 146.908 51.0188 146.809C50.9302 146.738 50.8297 146.69 50.7172 146.668C50.6047 146.646 50.4893 146.634 50.3712 146.634ZM41.1196 145.062L39.4084 147.022H41.1196V145.062ZM26.9798 132.476V132.907H25.2345V132.476H26.9798ZM21.7439 132.476V132.907H19.9985V132.476H21.7439ZM29.5978 132.476V132.907H27.8525V132.476H29.5978ZM24.3618 132.476V132.907H22.6165V132.476H24.3618ZM24.3618 129.459V129.89H22.6165V129.459H24.3618ZM26.9798 129.459V129.89H25.2345V129.459H26.9798ZM29.5978 129.459V129.89H27.8525V129.459H29.5978ZM62.4623 119.159C62.9236 119.159 63.2934 119.279 63.5718 119.518C63.8502 119.757 63.9894 120.063 63.9894 120.436C63.9894 120.66 63.923 120.882 63.79 121.102C63.6571 121.322 63.4656 121.494 63.2156 121.617V121.638C63.511 121.775 63.7349 121.941 63.8872 122.136C64.0394 122.331 64.1155 122.583 64.1155 122.89C64.1155 123.319 63.9582 123.678 63.6434 123.968C63.3287 124.257 62.935 124.402 62.4623 124.402C62.21 124.402 61.9805 124.365 61.7737 124.291C61.5669 124.217 61.3908 124.11 61.2453 123.971C61.1021 123.836 60.9936 123.676 60.9198 123.491C60.8459 123.306 60.809 123.11 60.809 122.904C60.809 122.632 60.8823 122.382 61.0289 122.154C61.1754 121.927 61.3885 121.745 61.668 121.611V121.59C61.418 121.447 61.2328 121.29 61.1124 121.119C60.9919 120.948 60.9317 120.735 60.9317 120.479C60.9317 120.102 61.076 119.788 61.3646 119.537C61.6532 119.285 62.0191 119.159 62.4623 119.159ZM68.3868 119.173C68.9458 119.173 69.356 119.39 69.6174 119.823C69.8787 120.256 70.0094 120.908 70.0094 121.779C70.0094 122.679 69.877 123.34 69.6123 123.761C69.3475 124.181 68.939 124.392 68.3868 124.392C67.8278 124.392 67.4176 124.177 67.1562 123.749C66.8949 123.32 66.7642 122.666 66.7642 121.786C66.7642 120.881 66.8966 120.22 67.1613 119.801C67.4261 119.382 67.8346 119.173 68.3868 119.173ZM72.1979 119.173C72.7569 119.173 73.1671 119.39 73.4285 119.823C73.6898 120.256 73.8205 120.908 73.8205 121.779C73.8205 122.679 73.6881 123.34 73.4233 123.761C73.1586 124.181 72.7501 124.392 72.1979 124.392C71.6388 124.392 71.2286 124.177 70.9673 123.749C70.7059 123.32 70.5753 122.666 70.5753 121.786C70.5753 120.881 70.7076 120.22 70.9724 119.801C71.2372 119.382 71.6456 119.173 72.1979 119.173ZM65.8302 123.328V124.287H65.0155V123.328H65.8302ZM59.0909 119.257V123.776H59.9909V124.287H57.5161V123.776H58.4364V120.415H57.5161V119.957C57.8638 119.957 58.12 119.909 58.2848 119.811C58.4495 119.713 58.5421 119.529 58.5626 119.257H59.0909ZM62.0771 121.779C61.8884 121.902 61.7441 122.055 61.6441 122.235C61.5442 122.416 61.4942 122.622 61.4942 122.853C61.4942 123.156 61.5868 123.406 61.772 123.604C61.9572 123.801 62.1896 123.9 62.4691 123.9C62.7554 123.9 62.985 123.815 63.1577 123.646C63.3304 123.477 63.4167 123.246 63.4167 122.954C63.4167 122.748 63.3758 122.584 63.294 122.463C63.2122 122.341 63.0543 122.218 62.8202 122.092C62.7429 122.049 62.6401 122.003 62.5117 121.954C62.3833 121.905 62.2384 121.846 62.0771 121.779ZM68.3868 119.728C68.1982 119.728 68.0431 119.773 67.9215 119.861C67.7999 119.95 67.7039 120.082 67.6335 120.257C67.5653 120.428 67.5187 120.643 67.4937 120.904C67.4687 121.164 67.4562 121.458 67.4562 121.786C67.4562 122.136 67.467 122.429 67.4886 122.665C67.5102 122.9 67.5573 123.111 67.63 123.298C67.6959 123.47 67.7897 123.603 67.9113 123.697C68.0329 123.79 68.1914 123.836 68.3868 123.836C68.5754 123.836 68.7305 123.792 68.8521 123.703C68.9737 123.615 69.0686 123.483 69.1367 123.308C69.2026 123.142 69.2492 122.932 69.2765 122.678C69.3038 122.424 69.3174 122.125 69.3174 121.779C69.3174 121.436 69.3038 121.137 69.2765 120.883C69.2492 120.63 69.2015 120.419 69.1333 120.25C69.0652 120.08 68.9714 119.95 68.8521 119.861C68.7328 119.773 68.5777 119.728 68.3868 119.728ZM72.1979 119.728C72.0092 119.728 71.8541 119.773 71.7326 119.861C71.611 119.95 71.515 120.082 71.4445 120.257C71.3763 120.428 71.3298 120.643 71.3048 120.904C71.2798 121.164 71.2673 121.458 71.2673 121.786C71.2673 122.136 71.2781 122.429 71.2996 122.665C71.3212 122.9 71.3684 123.111 71.4411 123.298C71.507 123.47 71.6008 123.603 71.7223 123.697C71.8439 123.79 72.0024 123.836 72.1979 123.836C72.3865 123.836 72.5416 123.792 72.6632 123.703C72.7848 123.615 72.8796 123.483 72.9478 123.308C73.0137 123.142 73.0603 122.932 73.0876 122.678C73.1148 122.424 73.1285 122.125 73.1285 121.779C73.1285 121.436 73.1148 121.137 73.0876 120.883C73.0603 120.63 73.0126 120.419 72.9444 120.25C72.8762 120.08 72.7825 119.95 72.6632 119.861C72.5439 119.773 72.3888 119.728 72.1979 119.728ZM62.4589 119.654C62.2112 119.654 62.0083 119.722 61.8504 119.856C61.6924 119.991 61.6135 120.173 61.6135 120.402C61.6135 120.568 61.6538 120.708 61.7345 120.823C61.8152 120.937 61.9362 121.041 62.0975 121.133C62.168 121.171 62.2753 121.223 62.4197 121.291C62.564 121.358 62.6952 121.411 62.8134 121.449C63.0111 121.299 63.1452 121.144 63.2156 120.986C63.2861 120.828 63.3213 120.647 63.3213 120.442C63.3213 120.218 63.2452 120.03 63.0929 119.88C62.9406 119.73 62.7293 119.654 62.4589 119.654ZM64.5042 41.1085V41.5395H62.7588V41.1085H64.5042ZM61.8862 41.1085V41.5395H60.1409V41.1085H61.8862ZM67.1221 41.1085V41.5395H65.3768V41.1085H67.1221ZM61.8862 38.0917V38.5226H60.1409V38.0917H61.8862ZM69.7401 38.0917V38.5226H67.9948V38.0917H69.7401ZM67.1221 38.0917V38.5226H65.3768V38.0917H67.1221ZM64.5042 38.0917V38.5226H62.7588V38.0917H64.5042ZM15.6353 33.7819H4.29068V38.0917H15.6353V33.7819ZM44.433 32.058H33.0884V38.0917L44.432 38.0911L44.433 32.058ZM47.9236 26.1105V27.8344H47.4873V26.1105H47.9236ZM44.8693 26.0243V27.7482H44.433V26.0243H44.8693ZM69.706 21.7178C70.2651 21.7178 70.6753 21.9344 70.9366 22.3677C71.1979 22.8009 71.3286 23.453 71.3286 24.3239C71.3286 25.224 71.1962 25.8845 70.9315 26.3054C70.6667 26.7263 70.2582 26.9367 69.706 26.9367C69.147 26.9367 68.7368 26.7224 68.4754 26.2936C68.2141 25.8649 68.0834 25.2106 68.0834 24.3306C68.0834 23.426 68.2158 22.7644 68.4805 22.3458C68.7453 21.9272 69.1538 21.7178 69.706 21.7178ZM65.895 21.7178C66.454 21.7178 66.8642 21.9344 67.1255 22.3677C67.3869 22.8009 67.5176 23.453 67.5176 24.3239C67.5176 25.224 67.3852 25.8845 67.1204 26.3054C66.8557 26.7263 66.4472 26.9367 65.895 26.9367C65.3359 26.9367 64.9257 26.7224 64.6644 26.2936C64.403 25.8649 64.2724 25.2106 64.2724 24.3306C64.2724 23.426 64.4047 22.7644 64.6695 22.3458C64.9342 21.9272 65.3427 21.7178 65.895 21.7178ZM59.8613 21.7145C60.0909 21.7145 60.2914 21.7375 60.463 21.7835C60.6346 21.8295 60.7897 21.9008 60.9283 21.9973C61.0783 22.105 61.1913 22.2352 61.2675 22.3879C61.3436 22.5405 61.3817 22.719 61.3817 22.9232C61.3817 23.1993 61.2896 23.4418 61.1056 23.6505C60.9215 23.8593 60.701 23.9917 60.4442 24.0478V24.095C60.5511 24.1152 60.6652 24.15 60.7868 24.1993C60.9084 24.2487 61.0215 24.3217 61.126 24.4182C61.2305 24.5147 61.3158 24.6387 61.3817 24.7902C61.4476 24.9418 61.4805 25.1264 61.4805 25.3441C61.4805 25.5708 61.4413 25.779 61.3629 25.9687C61.2845 26.1584 61.1737 26.3262 61.0306 26.4721C60.8828 26.6247 60.7044 26.7403 60.4954 26.8189C60.2863 26.8974 60.0488 26.9367 59.7829 26.9367C59.5284 26.9367 59.2762 26.9064 59.0262 26.8458C58.7762 26.7852 58.566 26.7123 58.3955 26.627V25.9165H58.4433C58.5864 26.0198 58.7785 26.1185 59.0194 26.2128C59.2602 26.3071 59.5011 26.3542 59.742 26.3542C59.8806 26.3542 60.0198 26.3323 60.1596 26.2886C60.2994 26.2448 60.4158 26.1735 60.509 26.0748C60.5999 25.976 60.6692 25.8671 60.7169 25.7482C60.7647 25.6292 60.7885 25.4788 60.7885 25.297C60.7885 25.1152 60.7618 24.9659 60.7084 24.8492C60.655 24.7324 60.5806 24.6404 60.4851 24.5731C60.3897 24.5057 60.2766 24.4592 60.146 24.4333C60.0153 24.4075 59.8738 24.3946 59.7216 24.3946H59.4318V23.8357H59.6568C59.9636 23.8357 60.213 23.7639 60.405 23.6202C60.5971 23.4765 60.6931 23.2678 60.6931 22.9939C60.6931 22.8682 60.6681 22.7599 60.6181 22.669C60.5681 22.5781 60.5045 22.5057 60.4272 22.4518C60.3408 22.3935 60.2454 22.3531 60.1409 22.3306C60.0363 22.3082 59.925 22.297 59.8068 22.297C59.6841 22.297 59.5614 22.3116 59.4386 22.3407C59.3159 22.3699 59.1955 22.4081 59.0773 22.4552C58.9682 22.5001 58.8733 22.5472 58.7927 22.5966C58.712 22.646 58.6398 22.692 58.5762 22.7347H58.5353V22.0242C58.683 21.9457 58.8836 21.8744 59.137 21.8104C59.3904 21.7465 59.6318 21.7145 59.8613 21.7145ZM63.3383 25.8727V26.8323H62.5236V25.8727H63.3383ZM69.706 22.2734C69.5174 22.2734 69.3623 22.3177 69.2407 22.4064C69.1191 22.4951 69.0231 22.6269 68.9527 22.802C68.8845 22.9726 68.8379 23.1881 68.8129 23.4485C68.7879 23.7089 68.7754 24.0029 68.7754 24.3306C68.7754 24.6808 68.7862 24.9737 68.8078 25.2094C68.8294 25.4451 68.8765 25.6561 68.9493 25.8424C69.0152 26.0153 69.1089 26.1483 69.2305 26.2414C69.3521 26.3346 69.5106 26.3812 69.706 26.3812C69.8946 26.3812 70.0497 26.3368 70.1713 26.2482C70.2929 26.1595 70.3878 26.0276 70.456 25.8525C70.5219 25.6864 70.5685 25.4766 70.5957 25.2229C70.623 24.9693 70.6366 24.6696 70.6366 24.3239C70.6366 23.9805 70.623 23.6819 70.5957 23.4283C70.5685 23.1746 70.5207 22.9636 70.4526 22.7953C70.3844 22.6247 70.2906 22.4951 70.1713 22.4064C70.052 22.3177 69.8969 22.2734 69.706 22.2734ZM65.895 22.2734C65.7063 22.2734 65.5512 22.3177 65.4296 22.4064C65.3081 22.4951 65.2121 22.6269 65.1416 22.802C65.0734 22.9726 65.0268 23.1881 65.0018 23.4485C64.9768 23.7089 64.9643 24.0029 64.9643 24.3306C64.9643 24.6808 64.9751 24.9737 64.9967 25.2094C65.0183 25.4451 65.0655 25.6561 65.1382 25.8424C65.2041 26.0153 65.2978 26.1483 65.4194 26.2414C65.541 26.3346 65.6995 26.3812 65.895 26.3812C66.0836 26.3812 66.2387 26.3368 66.3603 26.2482C66.4818 26.1595 66.5767 26.0276 66.6449 25.8525C66.7108 25.6864 66.7574 25.4766 66.7847 25.2229C66.8119 24.9693 66.8256 24.6696 66.8256 24.3239C66.8256 23.9805 66.8119 23.6819 66.7847 23.4283C66.7574 23.1746 66.7097 22.9636 66.6415 22.7953C66.5733 22.6247 66.4796 22.4951 66.3603 22.4064C66.241 22.3177 66.0858 22.2734 65.895 22.2734ZM47.9236 23.5246V25.2485H47.4873V23.5246H47.9236ZM44.8693 23.4384V25.1623H44.433V23.4384H44.8693ZM36.4188 19.1858C36.9779 19.1858 37.3881 19.4024 37.6494 19.8357C37.9108 20.2689 38.0415 20.921 38.0415 21.7919C38.0415 22.692 37.9091 23.3525 37.6443 23.7734C37.3796 24.1943 36.9711 24.4047 36.4188 24.4047C35.8598 24.4047 35.4496 24.1904 35.1883 23.7616C34.9269 23.3329 34.7962 22.6786 34.7962 21.7986C34.7962 20.894 34.9286 20.2324 35.1934 19.8138C35.4581 19.3952 35.8666 19.1858 36.4188 19.1858ZM32.6078 19.1858C33.1668 19.1858 33.577 19.4024 33.8384 19.8357C34.0997 20.2689 34.2304 20.921 34.2304 21.7919C34.2304 22.692 34.098 23.3525 33.8333 23.7734C33.5685 24.1943 33.16 24.4047 32.6078 24.4047C32.0487 24.4047 31.6385 24.1904 31.3772 23.7616C31.1159 23.3329 30.9852 22.6786 30.9852 21.7986C30.9852 20.894 31.1176 20.2324 31.3823 19.8138C31.6471 19.3952 32.0556 19.1858 32.6078 19.1858ZM26.5742 19.1825C26.8037 19.1825 27.0042 19.2055 27.1758 19.2515C27.3474 19.2975 27.5025 19.3688 27.6411 19.4653C27.7911 19.573 27.9042 19.7032 27.9803 19.8559C28.0564 20.0085 28.0945 20.187 28.0945 20.3912C28.0945 20.6673 28.0025 20.9098 27.8184 21.1185C27.6343 21.3273 27.4139 21.4597 27.1571 21.5158V21.563C27.2639 21.5832 27.3781 21.618 27.4997 21.6673C27.6212 21.7167 27.7343 21.7897 27.8388 21.8862C27.9434 21.9827 28.0286 22.1067 28.0945 22.2582C28.1604 22.4098 28.1934 22.5944 28.1934 22.8121C28.1934 23.0388 28.1542 23.247 28.0758 23.4367C27.9974 23.6264 27.8866 23.7942 27.7434 23.9401C27.5957 24.0927 27.4173 24.2083 27.2082 24.2869C26.9991 24.3654 26.7617 24.4047 26.4958 24.4047C26.2412 24.4047 25.989 24.3744 25.739 24.3138C25.489 24.2532 25.2788 24.1803 25.1084 24.095V23.3845H25.1561C25.2993 23.4878 25.4913 23.5865 25.7322 23.6808C25.9731 23.7751 26.214 23.8222 26.4549 23.8222C26.5935 23.8222 26.7327 23.8003 26.8724 23.7566C27.0122 23.7128 27.1287 23.6415 27.2218 23.5428C27.3127 23.444 27.3821 23.3351 27.4298 23.2162C27.4775 23.0972 27.5014 22.9468 27.5014 22.765C27.5014 22.5832 27.4747 22.4339 27.4213 22.3172C27.3679 22.2004 27.2934 22.1084 27.198 22.0411C27.1025 21.9737 26.9895 21.9272 26.8588 21.9013C26.7281 21.8755 26.5867 21.8626 26.4344 21.8626H26.1447V21.3037H26.3696C26.6764 21.3037 26.9258 21.2319 27.1179 21.0882C27.3099 20.9445 27.4059 20.7358 27.4059 20.4619C27.4059 20.3362 27.3809 20.2279 27.3309 20.137C27.2809 20.0461 27.2173 19.9737 27.14 19.9198C27.0537 19.8615 26.9582 19.8211 26.8537 19.7986C26.7492 19.7762 26.6378 19.765 26.5196 19.765C26.3969 19.765 26.2742 19.7796 26.1515 19.8087C26.0288 19.8379 25.9083 19.8761 25.7901 19.9232C25.6811 19.9681 25.5862 20.0152 25.5055 20.0646C25.4248 20.114 25.3527 20.16 25.289 20.2027H25.2481V19.4922C25.3959 19.4137 25.5964 19.3424 25.8498 19.2784C26.1032 19.2145 26.3446 19.1825 26.5742 19.1825ZM30.0512 23.3407V24.3003H29.2365V23.3407H30.0512ZM36.4188 19.7414C36.2302 19.7414 36.0751 19.7857 35.9535 19.8744C35.832 19.9631 35.736 20.0949 35.6655 20.27C35.5973 20.4406 35.5507 20.6561 35.5257 20.9165C35.5007 21.1769 35.4882 21.4709 35.4882 21.7986C35.4882 22.1488 35.499 22.4417 35.5206 22.6774C35.5422 22.9131 35.5894 23.1241 35.6621 23.3104C35.728 23.4833 35.8217 23.6163 35.9433 23.7094C36.0649 23.8026 36.2234 23.8492 36.4188 23.8492C36.6075 23.8492 36.7626 23.8048 36.8842 23.7162C37.0057 23.6275 37.1006 23.4956 37.1688 23.3205C37.2347 23.1544 37.2813 22.9446 37.3086 22.6909C37.3358 22.4373 37.3495 22.1376 37.3495 21.7919C37.3495 21.4485 37.3358 21.1499 37.3086 20.8963C37.2813 20.6426 37.2336 20.4316 37.1654 20.2633C37.0972 20.0927 37.0035 19.9631 36.8842 19.8744C36.7648 19.7857 36.6097 19.7414 36.4188 19.7414ZM32.6078 19.7414C32.4192 19.7414 32.2641 19.7857 32.1425 19.8744C32.0209 19.9631 31.9249 20.0949 31.8544 20.27C31.7863 20.4406 31.7397 20.6561 31.7147 20.9165C31.6897 21.1769 31.6772 21.4709 31.6772 21.7986C31.6772 22.1488 31.688 22.4417 31.7096 22.6774C31.7311 22.9131 31.7783 23.1241 31.851 23.3104C31.9169 23.4833 32.0107 23.6163 32.1323 23.7094C32.2538 23.8026 32.4123 23.8492 32.6078 23.8492C32.7964 23.8492 32.9515 23.8048 33.0731 23.7162C33.1947 23.6275 33.2896 23.4956 33.3577 23.3205C33.4236 23.1544 33.4702 22.9446 33.4975 22.6909C33.5248 22.4373 33.5384 22.1376 33.5384 21.7919C33.5384 21.4485 33.5248 21.1499 33.4975 20.8963C33.4702 20.6426 33.4225 20.4316 33.3543 20.2633C33.2861 20.0927 33.1924 19.9631 33.0731 19.8744C32.9538 19.7857 32.7987 19.7414 32.6078 19.7414ZM47.9236 20.9387V22.6626H47.4873V20.9387H47.9236ZM44.8693 20.8525V22.5764H44.433V20.8525H44.8693ZM44.8693 18.2666V19.9906H44.433V18.2666H44.8693ZM59.2682 3.18238V3.61336H57.5229V3.18238H59.2682ZM61.8862 3.18238V3.61336H60.1409V3.18238H61.8862ZM64.5042 3.18238V3.61336H62.7588V3.18238H64.5042ZM67.1221 3.18238V3.61336H65.3768V3.18238H67.1221ZM69.7401 3.18238V3.61336H67.9948V3.18238H69.7401ZM58.3955 0.165527V0.596506H56.6502V0.165527H58.3955ZM61.0135 0.165527V0.596506H59.2682V0.165527H61.0135ZM63.6315 0.165527V0.596506H61.8862V0.165527H63.6315ZM66.2495 0.165527V0.596506H64.5042V0.165527H66.2495ZM68.8674 0.165527V0.596506H67.1221V0.165527H68.8674ZM71.4854 0.165527V0.596506H69.7401V0.165527H71.4854Z" fill="black"/>
<path d="M46.1783 41.5395H32.2158V55.3308H46.1783V41.5395Z" fill="#F7D070"/>
<path fill-rule="evenodd" clip-rule="evenodd" d="M33.9611 43.2634H38.3244V47.5732H33.9611V43.2634ZM40.0697 43.2634H44.433V47.5732H40.0697V43.2634ZM40.0697 49.2971H44.433V53.6069H40.0697V49.2971ZM33.9611 49.2971H38.3244V53.6069H33.9611V49.2971Z" fill="black"/>
<path d="M18.2533 3.61334H4.29071V17.4047H18.2533V3.61334Z" fill="#F7D070"/>
<path fill-rule="evenodd" clip-rule="evenodd" d="M16.508 5.33727H6.03605V15.6808H16.508V5.33727ZM5.16339 4.47531H17.3806V16.5427H5.16339V4.47531ZM11.272 11.371C10.79 11.371 10.3993 10.9851 10.3993 10.509C10.3993 10.033 10.79 9.64706 11.272 9.64706C11.754 9.64706 12.1447 10.033 12.1447 10.509C12.1447 10.9851 11.754 11.371 11.272 11.371Z" fill="black"/>
<path d="M32.2158 3.61334H23.4892V10.509H32.2158V3.61334Z" fill="#F7D070"/>
<path d="M27.8525 8.05084C28.4048 8.05084 28.8525 7.60776 28.8525 7.06119C28.8525 6.51462 28.4048 6.07153 27.8525 6.07153C27.3003 6.07153 26.8525 6.51462 26.8525 7.06119C26.8525 7.60776 27.3003 8.05084 27.8525 8.05084Z" fill="black"/>
<path d="M31.3431 4.47531H24.3619V5.46497H31.3431V4.47531Z" fill="black"/>
<path fill-rule="evenodd" clip-rule="evenodd" d="M24.3619 7.92316L27.8525 8.78511L31.3431 7.92316V8.78511L27.8525 9.64707L24.3619 8.78511V7.92316Z" fill="black"/>
<path d="M25.3619 5.33728H24.3619V8.78511H25.3619V5.33728Z" fill="black"/>
<path d="M31.4705 5.33728H30.4705V8.78511H31.4705V5.33728Z" fill="black"/>
<path d="M13.0173 41.5395H4.29071V48.4352H13.0173V41.5395Z" fill="#F7D070"/>
<path d="M8.65399 45.977C9.20628 45.977 9.65399 45.5339 9.65399 44.9873C9.65399 44.4408 9.20628 43.9977 8.65399 43.9977C8.10171 43.9977 7.65399 44.4408 7.65399 44.9873C7.65399 45.5339 8.10171 45.977 8.65399 45.977Z" fill="black"/>
<path d="M12.1447 42.4015H5.16339V43.3911H12.1447V42.4015Z" fill="black"/>
<path fill-rule="evenodd" clip-rule="evenodd" d="M5.16339 45.8493L8.65403 46.7112L12.1447 45.8493V46.7112L8.65403 47.5732L5.16339 46.7112V45.8493Z" fill="black"/>
<path d="M6.16339 43.2634H5.16339V46.7112H6.16339V43.2634Z" fill="black"/>
<path d="M12.272 43.2634H11.272V46.7112H12.272V43.2634Z" fill="black"/>
<path d="M15.6353 20.8525H4.29071V27.7482H15.6353V20.8525Z" fill="#F7D070"/>
<path fill-rule="evenodd" clip-rule="evenodd" d="M12.1497 21.7145C13.5928 21.7145 14.7626 22.8722 14.7626 24.3003C14.7626 25.7285 13.5928 26.8862 12.1497 26.8862H6.90361C5.46055 26.8862 4.29071 25.7285 4.29071 24.3003C4.29071 22.8722 5.46055 21.7145 6.90361 21.7145H12.1497ZM12.2935 22.5764H6.17809C5.21604 22.5764 4.43615 23.3483 4.43615 24.3003C4.43615 25.2524 5.21604 26.0243 6.17809 26.0243H12.2935C13.2555 26.0243 14.0354 25.2524 14.0354 24.3003C14.0354 23.3483 13.2555 22.5764 12.2935 22.5764Z" fill="black"/>
<path d="M12.1447 25.29C12.6969 25.29 13.1447 24.8469 13.1447 24.3003C13.1447 23.7538 12.6969 23.3107 12.1447 23.3107C11.5924 23.3107 11.1447 23.7538 11.1447 24.3003C11.1447 24.8469 11.5924 25.29 12.1447 25.29Z" fill="black"/>
<path d="M7.78135 20.8525H4.29071V27.7482H7.78135V20.8525Z" fill="black"/>
<path d="M39.8401 87.2232H35.6447V86.3028C36 86.025 36.319 85.7624 36.6015 85.5149C36.884 85.2674 37.1326 85.0326 37.3474 84.8103C37.626 84.5199 37.828 84.2649 37.9533 84.0452C38.0786 83.8255 38.1412 83.5995 38.1412 83.3672C38.1412 83.1045 38.0619 82.9031 37.9034 82.763C37.7449 82.6228 37.5238 82.5528 37.24 82.5528C37.0943 82.5528 36.9568 82.5704 36.8277 82.6058C36.6986 82.6411 36.5676 82.6866 36.4346 82.7422C36.3043 82.8002 36.193 82.8596 36.101 82.9202L35.8939 83.0566H35.7827V81.8255C35.9438 81.7497 36.1956 81.6721 36.5382 81.5925C36.8808 81.513 37.2106 81.4732 37.5276 81.4732C38.2051 81.4732 38.7183 81.6222 39.0673 81.9202C39.4163 82.2182 39.5908 82.6374 39.5908 83.1778C39.5908 83.5111 39.5115 83.8375 39.353 84.1569C39.1945 84.4764 38.9312 84.8192 38.563 85.1853C38.3329 85.4101 38.1092 85.6102 37.8919 85.7857C37.6746 85.9612 37.5174 86.0856 37.4202 86.1588H39.8401V87.2232ZM44.906 85.9088H44.1352V87.2384H42.7508V85.9088H40.2389V84.8558L42.7048 81.5831H44.1352V84.8937H44.906V85.9088ZM42.7508 84.8937V82.9732L41.305 84.8937H42.7508ZM46.973 87.2232H45.6155V85.7346H46.973V87.2232ZM52.223 84.4013C52.223 84.8886 52.1834 85.3154 52.1042 85.6816C52.0249 86.0477 51.8984 86.3533 51.7245 86.5982C51.5507 86.8432 51.3244 87.0282 51.0457 87.1532C50.767 87.2782 50.4257 87.3407 50.0218 87.3407C49.6204 87.3407 49.2804 87.2782 49.0017 87.1532C48.723 87.0282 48.4955 86.8407 48.3191 86.5907C48.1452 86.3432 48.0187 86.0383 47.9394 85.6759C47.8602 85.3135 47.8205 84.8899 47.8205 84.405C47.8205 83.905 47.8595 83.4783 47.9375 83.1247C48.0155 82.7712 48.1452 82.4669 48.3268 82.2119C48.5057 81.9618 48.7358 81.7756 49.017 81.6531C49.2983 81.5307 49.6332 81.4694 50.0218 81.4694C50.4334 81.4694 50.7766 81.5332 51.0515 81.6607C51.3263 81.7882 51.5519 81.9783 51.7283 82.2308C51.9022 82.4783 52.0281 82.7838 52.1061 83.1475C52.1841 83.5111 52.223 83.929 52.223 84.4013ZM50.7849 84.4013C50.7849 83.7043 50.7268 83.215 50.6105 82.9334C50.4941 82.6519 50.2979 82.5111 50.0218 82.5111C49.7482 82.5111 49.5527 82.6519 49.4351 82.9334C49.3174 83.215 49.2586 83.7068 49.2586 84.4088C49.2586 85.0957 49.3174 85.5824 49.4351 85.8691C49.5527 86.1557 49.7482 86.299 50.0218 86.299C50.2954 86.299 50.4909 86.1557 50.6085 85.8691C50.7261 85.5824 50.7849 85.0932 50.7849 84.4013ZM57.2238 84.4013C57.2238 84.8886 57.1842 85.3154 57.1049 85.6816C57.0256 86.0477 56.8991 86.3533 56.7252 86.5982C56.5514 86.8432 56.3251 87.0282 56.0465 87.1532C55.7678 87.2782 55.4265 87.3407 55.0225 87.3407C54.6211 87.3407 54.2811 87.2782 54.0024 87.1532C53.7238 87.0282 53.4962 86.8407 53.3198 86.5907C53.146 86.3432 53.0194 86.0383 52.9402 85.6759C52.8609 85.3135 52.8213 84.8899 52.8213 84.405C52.8213 83.905 52.8603 83.4783 52.9383 83.1247C53.0162 82.7712 53.146 82.4669 53.3275 82.2119C53.5065 81.9618 53.7366 81.7756 54.0178 81.6531C54.299 81.5307 54.6339 81.4694 55.0225 81.4694C55.4342 81.4694 55.7774 81.5332 56.0522 81.6607C56.3271 81.7882 56.5527 81.9783 56.7291 82.2308C56.9029 82.4783 57.0288 82.7838 57.1068 83.1475C57.1848 83.5111 57.2238 83.929 57.2238 84.4013ZM55.7857 84.4013C55.7857 83.7043 55.7275 83.215 55.6112 82.9334C55.4949 82.6519 55.2987 82.5111 55.0225 82.5111C54.749 82.5111 54.5534 82.6519 54.4358 82.9334C54.3182 83.215 54.2594 83.7068 54.2594 84.4088C54.2594 85.0957 54.3182 85.5824 54.4358 85.8691C54.5534 86.1557 54.749 86.299 55.0225 86.299C55.2961 86.299 55.4917 86.1557 55.6093 85.8691C55.7269 85.5824 55.7857 85.0932 55.7857 84.4013Z" fill="black"/>
<path d="M54.0323 79.4656H33.0884V81.1895H54.0323V79.4656Z" fill="#F7D070"/>
<g opacity="0.24">
<g opacity="0.24">
<g opacity="0.24">
<path opacity="0.24" d="M59.4878 78.302C66.5995 78.302 72.3646 72.5964 72.3646 65.5584C72.3646 58.5203 66.5995 52.8148 59.4878 52.8148C52.3762 52.8148 46.611 58.5203 46.611 65.5584C46.611 72.5964 52.3762 78.302 59.4878 78.302Z" fill="#FFC107"/>
<path opacity="0.24" fill-rule="evenodd" clip-rule="evenodd" d="M54.2171 62.0828C54.5578 62.0828 54.8524 62.1451 55.1014 62.2694C55.35 62.3937 55.5562 62.5553 55.7193 62.7536C55.8833 62.9521 56.0054 63.1739 56.0874 63.4196C56.1694 63.6651 56.2101 63.9125 56.2101 64.1611C56.2101 64.41 56.1644 64.6572 56.0721 64.9026C55.9801 65.1483 55.8491 65.3701 55.6786 65.5684C55.5081 65.7669 55.3005 65.9285 55.0551 66.0528C54.8097 66.1771 54.5301 66.2394 54.2171 66.2394H52.2338V69.0339H51.2935V62.0828H54.2171ZM59.8932 62.0828C60.2416 62.0828 60.5401 62.1451 60.7882 62.2694C61.0362 62.3937 61.2408 62.5553 61.4015 62.7536C61.5622 62.9521 61.6791 63.1739 61.7531 63.4196C61.8268 63.6651 61.8642 63.9125 61.8642 64.1611C61.8642 64.3562 61.8373 64.5495 61.7836 64.7413C61.7299 64.9329 61.6493 65.1131 61.5422 65.2808C61.4349 65.449 61.3061 65.6025 61.1552 65.7402C61.0043 65.8779 60.8314 65.987 60.6373 66.068L61.9344 69.0339H60.9086L59.7328 66.2394H57.9427V69.0339H57.0178V62.0828H59.8932ZM65.1602 62.0828C65.5234 62.0828 65.8589 62.139 66.169 62.2512C66.4792 62.363 66.7457 62.5196 66.9702 62.7208C67.194 62.9216 67.3689 63.1642 67.4942 63.4475C67.6195 63.7308 67.6822 64.0441 67.6822 64.3867V66.74C67.6822 67.0895 67.6181 67.4059 67.4897 67.6892C67.3606 67.9728 67.1826 68.213 66.9554 68.411C66.7275 68.6088 66.4606 68.762 66.1542 68.8707C65.8477 68.9797 65.5165 69.0339 65.1602 69.0339C64.7911 69.0339 64.4516 68.9797 64.1418 68.8707C63.8316 68.762 63.5665 68.6088 63.3457 68.411C63.1247 68.213 62.9533 67.9728 62.8317 67.6892C62.7095 67.4059 62.6485 67.0895 62.6485 66.74V64.3867C62.6485 64.0441 62.7095 63.7308 62.8317 63.4475C62.9533 63.1642 63.1247 62.9216 63.3457 62.7208C63.5665 62.5196 63.8316 62.363 64.1418 62.2512C64.4516 62.139 64.7911 62.0828 65.1602 62.0828ZM65.1602 62.9234C64.9441 62.9234 64.7387 62.953 64.5453 63.0124C64.3517 63.0717 64.1842 63.1656 64.0438 63.294C63.9022 63.4227 63.7895 63.5858 63.704 63.7836C63.6189 63.9813 63.5761 64.2187 63.5761 64.4954V66.6313C63.5761 66.908 63.6189 67.1454 63.704 67.3431C63.7895 67.5408 63.9039 67.7023 64.0483 67.8279C64.193 67.9528 64.3616 68.0453 64.5553 68.1046C64.749 68.164 64.9506 68.1934 65.1602 68.1934C65.377 68.1934 65.5803 68.164 65.7706 68.1046C65.9605 68.0453 66.1297 67.9528 66.2769 67.8279C66.4245 67.7023 66.541 67.5408 66.6264 67.3431C66.7116 67.1454 66.7546 66.908 66.7546 66.6313V64.4954C66.7546 64.2187 66.7116 63.9813 66.6264 63.7836C66.541 63.5858 66.4265 63.4227 66.2824 63.294C66.1377 63.1656 65.9691 63.0717 65.7754 63.0124C65.5817 62.953 65.377 62.9234 65.1602 62.9234ZM54.0227 62.9303H52.2338V65.3818H54.0227C54.3908 65.3818 54.692 65.2744 54.9274 65.0589C55.1624 64.8438 55.2801 64.5445 55.2801 64.1611C55.2801 63.7844 55.1624 63.4851 54.9274 63.263C54.692 63.0412 54.3908 62.9303 54.0227 62.9303ZM59.7026 62.9303H57.9427V65.3818H59.7026C60.0641 65.3818 60.3611 65.2744 60.5918 65.0589C60.8233 64.8438 60.9388 64.5445 60.9388 64.1611C60.9388 63.7844 60.8233 63.4851 60.5918 63.263C60.3611 63.0412 60.0641 62.9303 59.7026 62.9303Z" fill="#453738"/>
</g>
<g opacity="0.24">
<path opacity="0.24" fill-rule="evenodd" clip-rule="evenodd" d="M17.9959 65.7514H26.1902V80.8121H35.5552V65.7514H43.7495V102.824H35.5552V88.9216H26.1902V102.824H17.9959V65.7514Z" fill="#CDC6C1"/>
<path opacity="0.24" fill-rule="evenodd" clip-rule="evenodd" d="M17.9959 84.8668L26.1902 88.9216L17.9959 102.824V84.8668ZM35.5552 80.8121V88.9216L26.1902 80.8121H35.5552ZM43.7495 65.7514V80.8121L35.5552 65.7514H43.7495Z" fill="#938784"/>
<path opacity="0.24" fill-rule="evenodd" clip-rule="evenodd" d="M43.7489 92.3702L43.7495 102.824H35.5552L43.7489 92.3702ZM43.7495 80.8121L43.7489 92.3702L35.5552 88.9216L43.7495 80.8121ZM26.1899 80.812L26.1902 88.9216L17.9959 84.8668L26.1899 80.812ZM26.1902 65.7514L26.1899 80.812L17.9959 73.2817L26.1902 65.7514Z" fill="#AEA5A3"/>
</g>
</g>
</g>
</svg>
